<?xml version="1.0" standalone="no"?>
<!DOCTYPE svg PUBLIC "-//W3C//DTD SVG 20010904//EN"
 "http://www.w3.org/TR/2001/REC-SVG-20010904/DTD/svg10.dtd">
<svg version="1.0" xmlns="http://www.w3.org/2000/svg"
 width="300.000000pt" height="200.000000pt" viewBox="0 0 300.000000 200.000000"
 preserveAspectRatio="xMidYMid meet">
<metadata>
Created by potrace 1.10, written by Peter Selinger 2001-2011
</metadata>
<g transform="translate(0.000000,200.000000) scale(0.100000,-0.100000)"
fill="#000000" stroke="none">
<path d="M1093 1977 c4 -11 2 -14 -8 -11 -11 5 -12 0 -5 -26 12 -43 18 -47 24
-19 11 50 11 62 -3 67 -10 3 -12 0 -8 -11z"/>
<path d="M1185 1981 c-8 -13 10 -22 30 -15 11 5 18 0 22 -15 3 -11 11 -21 18
-21 7 0 18 -7 25 -15 7 -9 16 -12 19 -7 9 14 55 27 47 13 -4 -6 -15 -11 -24
-12 -10 -1 -7 -4 8 -8 14 -4 25 -13 25 -21 0 -7 6 -15 13 -17 6 -3 12 3 12 12
0 12 6 16 20 12 11 -3 20 -2 20 2 0 5 14 8 30 9 17 0 30 -3 30 -8 0 -4 -6 -7
-12 -6 -14 1 -18 -5 -18 -31 0 -15 1 -15 18 0 12 11 22 13 32 7 13 -9 13 -10
0 -10 -12 -1 -11 -3 3 -11 9 -5 17 -15 17 -20 0 -6 -4 -7 -10 -4 -5 3 -10 1
-10 -5 0 -7 6 -10 13 -7 11 4 13 9 16 50 0 9 8 17 16 17 8 0 12 -6 9 -14 -3
-7 2 -16 10 -19 12 -5 15 -17 12 -47 -2 -22 -6 -43 -9 -46 -8 -8 3 -58 14 -62
5 -2 9 -10 9 -17 0 -7 7 -16 16 -19 10 -4 14 -12 10 -22 -4 -9 -1 -22 5 -30 6
-7 9 -21 6 -31 -4 -14 -5 -14 -6 4 -1 30 -21 40 -22 11 -1 -17 -3 -18 -6 -5
-2 9 -9 14 -15 11 -6 -4 -5 3 2 15 6 12 8 31 5 42 -10 30 -67 89 -86 89 -19 0
-33 26 -19 35 33 21 -67 57 -160 59 -21 1 -34 6 -33 13 1 6 -4 13 -11 16 -10
4 -12 -1 -8 -15 3 -14 1 -19 -6 -15 -5 4 -12 2 -14 -4 -2 -6 -14 -5 -33 5 -34
18 -81 23 -55 6 12 -8 11 -10 -5 -10 -11 0 -31 -7 -44 -16 -19 -14 -25 -14
-32 -3 -5 8 -3 16 4 21 7 4 8 8 2 8 -5 0 -17 -5 -25 -10 -8 -5 -10 -10 -4 -10
7 0 15 -11 18 -25 5 -20 -1 -35 -25 -65 -18 -22 -38 -40 -46 -40 -7 0 -13 -4
-13 -10 0 -5 5 -10 10 -10 14 0 6 -68 -9 -83 -13 -13 -15 -47 -1 -47 5 0 14
19 20 43 20 78 31 107 41 107 5 0 14 11 19 25 5 14 14 25 19 25 5 0 12 11 15
25 5 20 13 25 37 25 17 0 32 6 35 15 9 22 44 19 44 -4 0 -33 19 -34 61 -2 46
33 58 32 107 -11 18 -15 44 -28 57 -28 17 0 25 -6 25 -16 0 -17 44 -64 59 -64
5 0 11 -16 14 -35 3 -19 15 -47 27 -62 18 -23 20 -35 15 -107 -3 -48 -2 -73 3
-62 6 15 11 16 16 7 5 -7 3 -18 -3 -24 -6 -6 -11 -16 -11 -23 0 -15 35 -7 50
12 16 18 3 55 -16 47 -7 -3 -14 0 -14 7 0 6 -4 8 -10 5 -15 -9 -12 34 3 48 28
27 51 17 74 -33 10 -22 12 -23 12 -4 1 11 -9 31 -21 44 -12 13 -17 25 -11 27
5 2 19 11 29 19 10 9 13 13 6 9 -7 -3 -21 -4 -31 0 -14 4 -18 14 -17 43 1 20
-2 40 -8 43 -14 10 1 39 20 39 12 0 15 -6 10 -26 -4 -14 -3 -23 1 -21 5 3 8
-12 8 -33 0 -21 3 -36 7 -34 5 3 8 16 8 29 0 13 5 25 12 27 8 3 7 14 -5 37
-11 23 -15 46 -11 71 4 23 2 40 -5 44 -7 5 -9 -3 -4 -25 5 -29 4 -30 -14 -21
-18 10 -20 8 -15 -13 5 -31 -23 -45 -45 -22 -21 21 -10 46 27 60 17 6 30 15
30 20 0 5 -15 0 -34 -11 l-34 -20 -6 23 c-3 13 -3 31 1 41 6 16 7 16 14 -3 6
-16 14 -18 45 -14 26 3 32 6 17 9 -12 2 -38 21 -58 43 -31 35 -34 43 -23 57
11 13 11 14 -2 7 -24 -15 -71 -14 -77 1 -3 8 -19 14 -38 14 -23 0 -37 7 -48
23 -12 18 -18 20 -28 10 -11 -11 -10 -13 5 -13 15 0 16 -3 6 -15 -11 -14 -14
-13 -25 7 -10 20 -18 23 -68 20 -31 -1 -57 2 -57 7 0 5 5 11 12 13 6 2 8 10 4
16 -8 14 -72 16 -81 3z"/>
<path d="M1004 1885 c-4 -8 -10 -12 -15 -9 -9 5 -11 0 -13 -28 -1 -7 -8 -20
-17 -28 -29 -28 -37 -55 -32 -115 2 -33 4 -64 5 -70 0 -5 -6 -26 -15 -45 -14
-33 -13 -40 13 -119 29 -87 55 -123 73 -98 6 8 7 7 4 -4 -3 -9 7 -43 22 -75
16 -33 36 -76 46 -97 10 -21 37 -53 60 -73 41 -33 42 -36 49 -110 5 -51 3 -80
-4 -89 -6 -8 -10 -28 -8 -46 5 -48 75 -83 179 -88 l77 -3 -15 -37 c-8 -20 -20
-41 -26 -46 -7 -6 -13 -17 -15 -25 -8 -39 -110 -262 -154 -334 -26 -44 -52
-96 -57 -115 -4 -20 -16 -71 -25 -114 -10 -42 -22 -77 -28 -77 -5 0 -37 21
-70 46 -33 25 -62 43 -65 40 -3 -2 5 -9 16 -15 11 -7 27 -24 36 -40 10 -20 25
-31 49 -35 21 -4 36 -13 39 -24 2 -10 9 4 17 31 8 30 16 44 20 36 5 -6 8 11 8
39 1 84 28 161 90 254 14 21 27 36 29 34 6 -5 -24 -65 -46 -91 -15 -19 -15
-19 2 -5 27 20 58 86 50 106 -5 13 -3 15 7 9 10 -6 12 -4 7 8 -3 10 -2 17 3
17 6 0 10 7 10 16 0 9 6 30 14 47 38 84 56 131 56 144 0 8 4 12 9 9 4 -3 16 3
26 14 10 11 15 20 10 20 -4 0 -14 -8 -22 -17 -17 -22 -15 -14 16 60 19 43 30
57 45 57 37 0 140 56 174 94 35 40 42 91 12 91 -8 0 -23 16 -32 35 -14 27 -18
30 -18 14 0 -12 9 -33 20 -47 11 -14 20 -32 20 -40 0 -22 -77 -85 -114 -93
-17 -3 -40 -14 -50 -23 -18 -15 -19 -15 -13 19 l6 35 -14 -30 c-8 -16 -14 -24
-15 -17 0 7 -5 10 -10 7 -6 -4 -8 -11 -5 -16 12 -19 -121 -10 -171 12 -59 26
-66 35 -58 74 7 34 7 74 -2 128 -6 37 -6 37 21 27 60 -23 185 -3 185 30 0 8 3
26 6 40 5 21 4 22 -6 8 -6 -10 -18 -18 -25 -18 -18 0 -19 -12 -3 -28 9 -9 8
-12 -3 -16 -8 -2 -23 -7 -33 -10 -11 -4 -23 -1 -28 6 -6 10 -8 10 -8 1 0 -7
-5 -13 -11 -13 -5 0 -7 5 -3 12 4 6 3 8 -3 5 -5 -3 -20 0 -34 7 -13 7 -29 11
-35 9 -7 -2 -14 5 -17 16 -3 12 -16 25 -30 30 -14 5 -28 15 -33 22 -4 7 -3 10
4 5 5 -3 12 -3 15 1 2 5 2 2 0 -5 -1 -7 1 -10 6 -7 6 3 9 14 8 25 -1 13 -5 16
-11 10 -15 -15 -36 -12 -30 3 2 7 -5 22 -17 33 l-22 19 12 -23 c7 -13 10 -26
7 -29 -3 -4 -22 29 -42 73 -33 70 -49 141 -53 240 -1 6 -11 10 -23 9 -15 -1
-22 -8 -22 -19 1 -9 -3 -16 -8 -16 -6 0 -8 14 -6 32 4 22 0 36 -10 44 -12 9
-10 15 17 43 36 37 38 47 11 54 -20 5 -29 47 -10 47 5 0 7 -7 4 -15 -4 -8 -1
-15 5 -15 10 0 16 22 12 44 -1 5 3 12 10 16 8 5 4 10 -11 15 -15 5 -25 2 -31
-6 -4 -7 -11 -10 -15 -7 -10 11 46 72 69 75 27 4 36 13 13 13 -10 0 -16 6 -13
13 2 6 14 12 25 11 17 0 19 2 10 13 -6 7 -8 17 -4 20 4 4 11 1 16 -7 8 -13 10
-12 10 3 0 22 -48 24 -56 2z"/>
<path d="M1348 1667 c-27 -6 -48 -14 -48 -19 0 -5 -8 -7 -19 -3 -12 3 -21 0
-25 -11 -7 -19 2 -37 15 -29 5 4 17 8 26 10 10 2 38 11 62 19 59 21 72 20 103
-9 33 -30 42 -32 28 -4 -12 21 -68 60 -85 58 -5 -1 -31 -6 -57 -12z"/>
<path d="M1073 1604 c-38 -16 -56 -45 -50 -82 l4 -27 2 26 c2 38 19 48 87 51
55 3 59 1 62 -19 3 -19 -1 -23 -22 -23 -14 0 -26 -5 -26 -11 0 -5 -4 -8 -9 -4
-13 8 -59 -15 -66 -33 -7 -20 -3 -22 22 -16 15 4 20 11 16 22 -5 13 -3 14 7 5
15 -14 40 -6 40 13 0 10 9 14 28 12 26 -3 27 -1 25 37 -3 35 -33 89 -33 57 0
-9 -5 -10 -19 -2 -24 12 -28 12 -68 -6z"/>
<path d="M1319 1559 l-24 -21 29 17 c21 13 31 14 34 7 5 -15 39 -16 47 -2 5 8
11 7 21 -1 11 -9 14 -8 14 5 0 26 -91 22 -121 -5z"/>
<path d="M1273 1453 c-22 -8 -14 -20 12 -19 14 1 25 6 26 11 0 12 -20 16 -38
8z"/>
<path d="M1203 1443 c-7 -3 -13 -8 -13 -13 0 -12 25 -19 39 -11 15 10 -8 31
-26 24z"/>
<path d="M1670 1379 c-11 -24 -20 -49 -20 -56 0 -29 -60 -26 -60 3 0 8 -4 13
-9 10 -5 -4 -12 0 -14 6 -4 8 -6 7 -6 -4 -1 -9 4 -20 9 -23 15 -9 12 -42 -5
-59 -9 -8 -16 -18 -15 -21 2 -29 -2 -37 -15 -31 -9 3 -15 0 -15 -8 0 -8 -7
-16 -15 -20 -8 -3 -15 -1 -15 4 0 6 5 10 10 10 6 0 2 8 -7 18 -17 17 -33 11
-33 -13 0 -5 5 -3 10 5 8 12 10 10 10 -11 0 -39 -11 -42 -32 -9 -19 33 -24 55
-9 46 11 -7 8 21 -4 31 -4 4 -5 2 -1 -5 5 -9 1 -15 -13 -19 -20 -5 -21 -7 -6
-23 9 -10 15 -24 13 -31 -2 -8 3 -13 10 -12 18 4 14 -15 -9 -38 -45 -45 -10
-37 58 13 73 54 83 66 101 128 10 31 10 28 5 -22 -3 -38 -2 -58 5 -58 17 0 34
40 29 66 -5 30 1 31 13 2 9 -20 9 -19 5 8 -4 22 -1 35 15 49 11 10 20 27 20
37 0 11 5 28 11 40 6 11 8 22 5 25 -3 3 -15 -14 -26 -38z"/>
<path d="M1273 1403 c-7 -2 -13 -12 -13 -21 -1 -15 -2 -15 -11 1 -17 28 -43
20 -82 -27 -38 -47 -43 -61 -27 -86 7 -11 13 -4 29 32 20 47 42 66 77 68 10 0
37 2 59 3 22 2 49 -2 60 -7 11 -6 24 -9 28 -8 5 1 5 -3 1 -9 -4 -7 -22 -9 -50
-5 -26 3 -44 2 -44 -4 0 -5 -13 -8 -30 -6 -16 2 -30 0 -30 -4 0 -4 -13 -13
-30 -20 -16 -7 -30 -16 -30 -21 0 -14 11 -11 32 8 13 11 47 19 116 24 53 4 98
8 100 9 1 0 2 7 2 15 0 16 -18 28 -81 49 -46 16 -56 18 -76 9z"/>
<path d="M1280 1280 c-32 -5 -35 -8 -31 -35 1 -16 8 -33 13 -36 6 -4 8 -16 6
-27 -4 -12 0 -23 8 -26 8 -3 11 0 7 10 -3 8 0 21 7 29 10 12 9 15 -4 15 -9 0
-16 6 -16 14 0 9 7 12 20 9 14 -4 21 1 26 21 8 33 7 33 -36 26z"/>
<path d="M1362 1185 c-1 -13 2 -26 7 -29 10 -7 23 33 15 46 -10 15 -20 8 -22
-17z"/>
<path d="M1230 1191 c0 -5 -8 -7 -19 -4 -10 2 -21 -1 -23 -9 -8 -21 37 -18 50
3 8 12 8 19 2 19 -5 0 -10 -4 -10 -9z"/>
<path d="M1510 1024 c0 -8 -9 -37 -21 -64 -12 -27 -19 -54 -17 -60 2 -7 16 22
30 64 15 42 23 76 18 76 -6 0 -10 -7 -10 -16z"/>
<path d="M1683 994 c15 -8 31 -13 36 -10 5 3 24 -5 43 -18 20 -13 53 -29 74
-36 22 -7 51 -21 66 -31 14 -11 34 -19 43 -19 16 0 96 -35 193 -83 61 -31 133
-118 174 -212 20 -44 53 -118 74 -165 21 -47 61 -159 90 -250 36 -118 56 -166
68 -168 9 -2 16 3 16 12 0 9 -4 16 -10 16 -5 0 -7 6 -4 13 2 7 -4 41 -15 75
-11 37 -15 64 -9 68 5 3 2 11 -7 17 -8 7 -17 23 -20 36 -2 13 -13 41 -23 63
-12 24 -15 38 -8 38 8 0 8 2 0 8 -7 4 -22 28 -34 55 -12 26 -26 49 -30 52 -5
3 -6 14 -3 25 3 12 -1 22 -11 26 -9 3 -16 12 -16 20 0 8 -3 14 -7 14 -5 0 -13
11 -20 25 -6 14 -7 23 -2 19 15 -9 10 8 -8 28 -15 17 -15 21 -3 29 12 7 11 10
-7 15 -13 4 -23 12 -23 19 0 8 -9 16 -19 20 -11 3 -26 16 -34 28 -29 44 -64
75 -100 88 -29 10 -34 16 -25 26 16 20 3 27 -15 8 -13 -12 -21 -13 -41 -4 -14
7 -23 15 -21 19 4 7 -9 11 -73 25 -15 4 -115 54 -187 95 -31 18 -65 29 -90 29
l-40 0 28 -15z"/>
<path d="M2950 955 c-1 -5 -3 -18 -5 -27 -2 -10 2 -18 8 -18 8 0 7 -3 -2 -9
-9 -6 -10 -11 -2 -15 17 -11 24 20 13 51 -6 15 -11 24 -12 18z"/>
<path d="M1078 939 c-2 -7 -17 -13 -33 -15 -47 -5 -58 -9 -87 -28 -15 -10 -47
-19 -72 -20 -54 -2 -73 -16 -25 -17 65 -2 94 3 118 19 42 30 45 31 94 37 41 5
45 8 33 21 -18 17 -23 18 -28 3z"/>
<path d="M1740 855 c-114 -68 -190 -118 -186 -123 9 -9 69 11 87 29 10 10 35
27 56 38 21 10 52 31 68 45 17 14 33 26 36 26 4 0 9 7 13 15 3 8 4 15 3 14 -1
0 -36 -20 -77 -44z"/>
<path d="M785 860 c-11 -5 -45 -32 -77 -62 -31 -29 -67 -62 -80 -74 -19 -17
-58 -75 -63 -94 -1 -3 -10 -23 -20 -45 -10 -22 -19 -44 -20 -50 -1 -5 -8 -23
-17 -40 -8 -16 -14 -39 -12 -50 2 -11 -10 -43 -25 -71 -16 -27 -40 -84 -52
-125 -24 -74 -26 -84 -28 -126 -1 -18 -8 -23 -38 -26 -34 -3 -33 -4 12 -6 44
-2 47 -4 28 -13 -14 -7 -23 -20 -23 -35 0 -12 -1 -26 -2 -30 -1 -5 6 -9 15
-11 12 -3 17 4 17 22 0 14 4 28 10 31 6 3 10 24 10 47 0 22 13 80 30 130 17
49 30 96 30 104 0 8 4 14 10 14 5 0 18 17 29 37 14 29 16 42 8 55 -9 13 -7 21
6 35 9 11 24 43 34 73 9 30 27 73 39 96 25 45 153 178 192 198 28 15 17 28
-13 16z"/>
<path d="M895 770 c33 -33 64 -60 71 -60 6 0 19 9 28 19 25 27 97 43 146 32
22 -5 38 -5 35 -1 -9 14 -68 20 -134 13 -42 -4 -58 -9 -46 -13 19 -7 19 -7 -2
-18 -17 -10 -25 -8 -45 11 -100 92 -141 106 -53 17z"/>
<path d="M1851 793 c-1 -39 8 -65 20 -57 5 3 6 10 3 16 -4 6 -11 25 -15 42
l-7 31 -1 -32z"/>
<path d="M1989 769 c-34 -45 -119 -193 -119 -207 0 -24 16 -11 44 36 102 162
116 181 149 185 27 3 26 4 -5 3 -21 -1 -39 3 -41 7 -1 5 -14 -6 -28 -24z"/>
<path d="M2086 743 c-4 -10 -14 -67 -23 -128 -26 -188 -30 -208 -53 -275 -12
-36 -23 -78 -24 -93 -1 -15 -8 -32 -16 -37 -8 -5 -12 -11 -10 -14 3 -3 19 7
36 22 25 22 32 40 43 102 8 41 22 107 31 145 14 53 33 295 24 295 -1 0 -5 -8
-8 -17z"/>
<path d="M1155 726 c-30 -14 -30 -14 20 -13 28 1 59 -2 70 -7 17 -6 16 -5 -4
13 -27 24 -44 25 -86 7z"/>
<path d="M1816 658 c-3 -46 -8 -100 -10 -120 -3 -27 0 -38 9 -38 21 0 32 216
12 237 -2 2 -7 -34 -11 -79z"/>
<path d="M2135 706 c-9 -21 -15 -45 -13 -54 2 -10 12 5 21 32 20 59 14 75 -8
22z"/>
<path d="M1453 697 c-3 -6 -1 -7 5 -3 7 4 12 2 12 -3 0 -6 -6 -11 -14 -11 -8
0 -16 -7 -20 -15 -7 -19 5 -19 30 0 10 8 28 15 39 15 11 0 38 7 60 15 l40 14
-73 -1 c-40 -1 -76 -6 -79 -11z"/>
<path d="M740 659 c25 -24 46 -41 48 -37 2 5 -11 20 -29 35 -54 47 -67 48 -19
2z"/>
<path d="M2208 684 c-12 -11 -10 -62 2 -69 6 -4 7 -12 4 -18 -5 -8 -4 -9 3 -2
6 6 8 28 4 53 -3 24 -9 40 -13 36z"/>
<path d="M852 600 c1 -30 5 -64 11 -75 5 -10 18 -42 28 -70 13 -36 18 -43 19
-25 1 22 2 23 11 8 7 -12 6 -24 -1 -37 -12 -24 -13 -42 -1 -22 7 10 11 5 16
-17 3 -18 4 -36 0 -42 -3 -5 0 -10 7 -10 8 0 9 -3 2 -8 -7 -5 -7 -14 2 -31 11
-21 12 -21 16 -5 2 11 1 30 -3 44 -4 14 -13 54 -19 90 -6 35 -18 78 -26 95
l-14 30 6 -35 c5 -26 3 -32 -5 -24 -6 6 -13 33 -15 60 -3 27 -11 67 -19 89
l-15 40 0 -55z"/>
<path d="M788 551 c-4 -13 -2 -33 3 -43 5 -10 7 -23 4 -28 -3 -5 -1 -11 5 -15
5 -3 10 -11 10 -17 0 -6 -9 -3 -20 7 -10 9 -18 22 -17 29 1 6 -6 10 -17 8 -12
-2 -16 1 -10 9 4 7 3 10 -4 5 -5 -3 -13 0 -15 6 -3 7 -6 9 -6 3 -1 -5 28 -36
63 -67 l64 -57 -20 52 c-11 29 -23 70 -27 92 -6 35 -8 37 -13 16z"/>
<path d="M2215 555 c-4 -11 -18 -47 -31 -80 -21 -56 -42 -132 -49 -180 -2 -11
-6 -29 -10 -40 -7 -20 -7 -20 9 0 9 11 14 25 12 32 -3 7 -1 15 3 18 5 2 12 22
16 42 4 21 10 42 13 48 4 5 7 16 8 24 2 7 12 37 24 66 12 30 20 62 17 72 -4
17 -4 17 -12 -2z"/>
<path d="M1656 504 c-9 -23 -7 -34 4 -34 6 0 10 7 10 15 0 8 5 15 11 15 5 0 7
5 4 10 -9 15 -22 12 -29 -6z"/>
<path d="M2115 468 c-6 -18 -10 -41 -34 -218 -12 -85 -25 -176 -30 -202 -7
-41 -6 -46 10 -45 10 1 15 5 13 9 -3 4 -2 14 2 20 11 18 12 48 2 54 -14 9 -9
24 10 24 9 0 13 4 7 8 -18 13 -17 42 2 42 15 0 15 2 3 10 -12 8 -12 22 4 112
23 130 29 237 11 186z"/>
<path d="M1785 459 c-22 -4 -45 -4 -52 -2 -31 12 -41 -17 -48 -147 -9 -167
-10 -166 118 -156 50 4 93 9 95 11 2 2 4 68 5 147 l2 143 -40 5 c-22 3 -58 3
-80 -1z m93 -60 c2 -21 1 -22 -8 -6 -12 18 -60 24 -60 6 0 -5 4 -8 9 -5 17 11
41 -6 41 -29 0 -13 4 -26 9 -30 14 -8 7 -95 -8 -104 -8 -5 -10 -18 -5 -34 5
-23 3 -27 -15 -27 -12 0 -21 6 -21 14 0 7 -8 20 -17 27 -15 11 -16 11 -5 -1 6
-8 12 -23 12 -35 0 -16 -2 -17 -10 -5 -6 10 -10 11 -10 3 0 -20 -69 -13 -81 9
-7 13 -6 18 4 18 14 0 15 1 21 65 2 22 10 54 17 70 6 17 13 37 13 45 1 8 9 14
18 14 10 -1 14 4 11 13 -7 18 -25 12 -38 -13 -6 -10 -16 -20 -23 -22 -10 -2
-10 3 -2 17 13 25 25 32 64 41 47 10 81 -2 84 -31z"/>
<path d="M1805 338 c0 -37 -3 -43 -22 -46 -24 -4 -31 -26 -11 -38 8 -5 9 -2 5
9 -4 11 -1 17 7 17 8 0 13 -7 12 -16 -3 -19 -32 -38 -45 -29 -13 7 -7 -23 6
-36 8 -8 13 -8 17 0 4 6 0 11 -11 11 -12 0 -8 6 15 20 34 21 57 18 48 -6 -3
-8 -2 -14 2 -14 4 0 14 18 23 39 14 32 14 39 3 34 -8 -3 -14 -14 -14 -25 0
-10 -4 -17 -9 -13 -5 3 -9 35 -8 70 1 38 -2 65 -8 65 -5 0 -10 -19 -10 -42z"/>
<path d="M690 431 c25 -4 59 -11 75 -15 25 -6 27 -5 12 4 -10 6 -44 13 -75 15
-54 4 -55 4 -12 -4z"/>
<path d="M700 398 c79 -36 97 -46 120 -59 13 -8 31 -21 38 -29 12 -13 13 -13
8 3 -3 10 -6 22 -6 27 0 4 -9 6 -20 3 -12 -3 -20 0 -20 6 0 13 -68 45 -115 55
-29 5 -29 5 -5 -6z"/>
<path d="M885 340 c3 -25 8 -76 12 -113 3 -37 10 -70 16 -74 11 -7 3 67 -18
167 -10 47 -13 53 -10 20z"/>
<path d="M2388 290 c4 -41 7 -122 7 -180 l0 -105 17 50 c18 52 17 93 -3 208
-17 95 -30 111 -21 27z"/>
<path d="M580 325 c0 -2 26 -11 58 -20 31 -9 71 -23 89 -31 17 -8 39 -14 50
-13 13 0 14 2 3 6 -8 3 -42 15 -75 28 -59 22 -125 38 -125 30z"/>
<path d="M1615 296 c-105 -83 -123 -114 -33 -57 42 27 87 76 77 85 -2 2 -22
-10 -44 -28z"/>
<path d="M1302 183 c15 -15 30 -25 33 -22 7 8 -33 49 -48 49 -6 0 1 -12 15
-27z"/>
<path d="M878 164 c-5 -4 -8 -21 -8 -38 1 -26 2 -28 11 -13 11 19 8 63 -3 51z"/>
<path d="M900 118 c0 -13 -3 -40 -6 -61 -4 -21 -3 -37 3 -37 5 0 11 27 12 60
1 33 0 60 -3 60 -4 0 -6 -10 -6 -22z"/>
<path d="M2890 49 c-51 -5 -49 -6 28 -7 82 -2 107 2 55 9 -16 2 -53 1 -83 -2z"/>
</g>
</svg>
